<?xml version="1.0" encoding="utf-8"?>
<!-- Generator: Adobe Illustrator 24.0.2, SVG Export Plug-In . SVG Version: 6.00 Build 0)  -->
<svg version="1.1" id="Camada_1" xmlns="http://www.w3.org/2000/svg" xmlns:xlink="http://www.w3.org/1999/xlink" x="0px" y="0px"
	 viewBox="0 0 554 674" style="enable-background:new 0 0 554 674;" xml:space="preserve">
<style type="text/css">
	.st0{display:none;}
	.st1{fill:#5F4394;}
	.st2{fill:#9F616A;}
	.st3{fill:#8922DD;}
	.st4{fill:#2F2E41;}
	.st5{opacity:0.2;enable-background:new    ;}
	.st6{fill:#3F3D56;}
	.st7{opacity:0.5;}
	.st8{fill:url(#SVGID_1_);}
	.st9{fill:#FFFFFF;}
	.st10{fill:url(#SVGID_2_);}
	.st11{fill:url(#SVGID_3_);}
	.st12{fill:url(#SVGID_4_);}
	.st13{fill:url(#SVGID_5_);}
	.st14{fill:#69F0AE;}
	.st15{fill:#E0E0E0;}
	.st16{fill:url(#SVGID_6_);}
	.st17{fill:url(#SVGID_7_);}
	.st18{fill:#BE7C5E;}
	.st19{fill:#FDA57D;}
	.st20{fill:#333333;}
	.st21{fill:none;stroke:#3F3D56;stroke-miterlimit:10;}
	.st22{fill:#FFB6B6;}
</style>
<path class="st0" d="M130,674c54.2,0,98.2-9.9,98.2-22.2c0-12.2-43.9-22.1-98.2-22.1c-54.2,0-98.2,9.9-98.2,22.1
	C31.8,664.1,75.8,674,130,674z"/>
<ellipse transform="matrix(0.9996 -2.728420e-02 2.728420e-02 0.9996 -11.3351 7.5181)" class="st1" cx="269.8" cy="419.1" rx="97.6" ry="16.2"/>
<ellipse transform="matrix(0.9964 -8.497944e-02 8.497944e-02 0.9964 -51.6067 12.732)" class="st1" cx="123.8" cy="612.6" rx="92.3" ry="13"/>
<path class="st2" d="M84.9,404.9l-4.8,9.4l-29.3,32.6c0,0-20,18.2-8.9,19.3s18.4-16.8,18.4-16.8l34.4-28.6l3.8-13.1L84.9,404.9z"/>
<path class="st3" d="M99.5,367l-4.6,1.1c0,0-20.7,46.2-18.8,51.8c1.9,5.6,10.5,12.6,14.3,12C94.3,431.4,99.5,367,99.5,367z"/>
<path class="st4" d="M162.3,606.8c0,0-2.3,8.2,4.7,4.9s10.6-9.7,10.6-9.7L162.3,606.8z"/>
<path class="st4" d="M91.9,412.1c0,0-64.6,191.4-41.7,197.1c22.9,5.6,56.6-0.5,56.3-4.3c-0.3-3.7-6-77.8-6-77.8s33.4,98.4,74.8,75.4
	s32.1-27.3,28.3-28.9c-3.8-1.6-61.4-77.8-61.1-92c0.3-14.2-0.6-58.6-7.6-65.2L91.9,412.1z"/>
<path class="st4" d="M132.9,344.1c-5.2-3.9-5.9-10.5-1.7-15.1c-0.3,0.2-0.5,0.4-0.8,0.7c-4.9,4.6-4.5,11.7,1,15.9
	c5.5,4.1,13.9,3.8,18.9-0.8c0.3-0.2,0.5-0.5,0.7-0.7C145.9,347.9,138.1,348,132.9,344.1z"/>
<ellipse class="st4" cx="131.7" cy="323.6" rx="27.5" ry="23.1"/>
<path class="st4" d="M53.8,608.4c0,0-9.2,8.8,0,8.8s18-5.8,18-5.8L53.8,608.4z"/>
<path class="st2" d="M114.2,338.1c0,0,4.8,16.6,1.3,19.8c-3.5,3.2-11.1,5.6-11.1,5.6l1.3,29.9c0,0,14.6-4.3,15.3-4.8
	c0.6-0.5,13.7-17.9,13.7-17.9l12.7-10.2c0,0-19.4-7.8-13.7-21.1C139.3,326.1,114.2,338.1,114.2,338.1z"/>
<ellipse class="st2" cx="125.9" cy="330.3" rx="16.5" ry="13.9"/>
<path class="st3" d="M134.8,416.4c0,0,7.3-20.3,10.8-23s12.1-27.8,12.1-27.8s-5.4-6.1-9.9-6.1s-8.6,1.3-13.7,5.3
	c-2.4,1.9-6.8,4-10.7,5.6c-5.8,2.5-13,0.6-16-4.3c0-0.1-0.1-0.1-0.1-0.2c-0.8-1.4-1.1-2.8-0.3-3.8c0,0-11.8,2.7-12.4,6.4
	s0,11.5-1,13.1s-3.8,4-2.5,14.2s-1.3,23-1.3,23C101.8,428.4,118.3,422.5,134.8,416.4z"/>
<ellipse class="st4" cx="125.8" cy="317.9" rx="14" ry="8"/>
<ellipse class="st4" cx="149.6" cy="306.1" rx="13.4" ry="11.2"/>
<path class="st4" d="M159.2,314.2c-6.9,0-12.7-4.5-13.3-10.3c0,0.3,0,0.6,0,0.9c0,6.2,6,11.2,13.4,11.2s13.3-5,13.4-11.2l0,0
	c0-0.3,0-0.6,0-0.9C171.9,309.7,166.1,314.2,159.2,314.2z"/>
<polygon class="st3" points="130.3,488.3 125.9,488.3 117,553.4 146.3,552.6 "/>
<polygon class="st5" points="176.9,496 172.5,496 163.6,561.1 192.9,560.3 "/>
<polygon class="st3" points="123.4,487.4 118,553 184.5,557.1 189.9,493.3 "/>
<ellipse class="st5" cx="148.7" cy="490.9" rx="1" ry="0.8"/>
<ellipse class="st5" cx="138.9" cy="479.7" rx="1.1" ry="1"/>
<path class="st6" d="M169.7,493h-0.5c0-0.2,0.3-17.7-11.6-19.3c-2.4-0.3-4.3,0.1-5.7,1.3c-4.9,4.1-2.9,15.7-2.9,15.8l-0.5,0.1
	c-0.1-0.5-2.1-11.9,3-16.2c1.6-1.3,3.6-1.8,6.1-1.5C170.1,474.9,169.7,492.8,169.7,493z"/>
<path class="st2" d="M158.7,402.5l-1.6,15l3.2,44.9c0,0,7.3,22.7-3.8,22.2s-7-23.8-7-23.8l-5.1-52.1L158.7,402.5z"/>
<path class="st3" d="M149.5,361.9l8.3,3.7c0,0,11.1,63.6,4.8,69.8s-19.4,8.6-20,6.1c-0.6-2.4-2.9-51.3-2.9-51.3L149.5,361.9z"/>
<g class="st7">
	
		<linearGradient id="SVGID_1_" gradientUnits="userSpaceOnUse" x1="512.8624" y1="708.7186" x2="512.8624" y2="600.3958" gradientTransform="matrix(0.9098 -0.415 0.415 0.9098 -298.4708 125.5612)">
		<stop  offset="0" style="stop-color:#808080;stop-opacity:0.25"/>
		<stop  offset="0.54" style="stop-color:#808080;stop-opacity:0.12"/>
		<stop  offset="1" style="stop-color:#808080;stop-opacity:0.1"/>
	</linearGradient>
	<polygon class="st8" points="377.3,477.2 454,446.6 502.2,539.3 425.6,569.9 	"/>
</g>
<polygon class="st9" points="378.7,477.5 453.4,447.7 500.5,538.3 425.9,568.1 "/>
<linearGradient id="SVGID_2_" gradientUnits="userSpaceOnUse" x1="510.3409" y1="610.317" x2="510.3409" y2="599.5542" gradientTransform="matrix(0.9098 -0.415 0.415 0.9098 -298.4826 125.5573)">
	<stop  offset="0" style="stop-color:#808080;stop-opacity:0.25"/>
	<stop  offset="0.54" style="stop-color:#808080;stop-opacity:0.12"/>
	<stop  offset="1" style="stop-color:#808080;stop-opacity:0.1"/>
</linearGradient>
<polygon class="st10" points="396.3,467.6 433.4,452.8 437.4,460.6 400.4,475.5 "/>
<linearGradient id="SVGID_3_" gradientUnits="userSpaceOnUse" x1="509.9778" y1="602.3265" x2="509.9778" y2="591.8597" gradientTransform="matrix(0.9098 -0.415 0.415 0.9098 -298.4828 125.5618)">
	<stop  offset="0" style="stop-color:#808080;stop-opacity:0.25"/>
	<stop  offset="0.54" style="stop-color:#808080;stop-opacity:0.12"/>
	<stop  offset="1" style="stop-color:#808080;stop-opacity:0.1"/>
</linearGradient>
<path class="st11" d="M410.9,452.5c-2.9,1.1-4.1,4.1-2.8,6.7c1.4,2.5,4.7,3.7,7.6,2.5c2.9-1.1,4.1-4.1,2.8-6.7
	C417.1,452.5,413.7,451.4,410.9,452.5z M414.7,459.8c-1.7,0.7-3.6,0.1-4.5-1.3c-0.8-1.4-0.1-3.2,1.5-4c1.7-0.7,3.6-0.1,4.5,1.3v0.1
	C417,457.4,416.4,459.1,414.7,459.8L414.7,459.8L414.7,459.8z"/>
<polygon class="st3" points="396.7,467.5 433,453 436.9,460.5 400.6,474.9 "/>
<path class="st3" d="M411,452.9c-2.8,1.1-4.1,4-2.8,6.5c1.3,2.5,4.6,3.6,7.4,2.4s4.1-4,2.8-6.5l0,0
	C417.1,452.8,413.8,451.8,411,452.9z M414.7,459.8c-1.6,0.6-3.6,0-4.2-1.4c-0.8-1.4,0-3.1,1.6-3.7c1.6-0.6,3.6,0,4.2,1.4
	C417,457.6,416.3,459.2,414.7,459.8L414.7,459.8z"/>
<linearGradient id="SVGID_4_" gradientUnits="userSpaceOnUse" x1="483.7035" y1="634.5505" x2="483.7035" y2="617.9698" gradientTransform="matrix(0.9098 -0.415 0.415 0.9098 -298.4777 125.565)">
	<stop  offset="0" style="stop-color:#808080;stop-opacity:0.25"/>
	<stop  offset="0.54" style="stop-color:#808080;stop-opacity:0.12"/>
	<stop  offset="1" style="stop-color:#808080;stop-opacity:0.1"/>
</linearGradient>
<polygon class="st12" points="389.9,490.8 405.8,484.4 413.1,498.4 397.1,504.8 "/>
<linearGradient id="SVGID_5_" gradientUnits="userSpaceOnUse" x1="485.3693" y1="665.7723" x2="485.3693" y2="649.1915" gradientTransform="matrix(0.9098 -0.415 0.415 0.9098 -298.4739 125.5651)">
	<stop  offset="0" style="stop-color:#808080;stop-opacity:0.25"/>
	<stop  offset="0.54" style="stop-color:#808080;stop-opacity:0.12"/>
	<stop  offset="1" style="stop-color:#808080;stop-opacity:0.1"/>
</linearGradient>
<polygon class="st13" points="404.3,518.5 420.3,512.1 427.6,526.1 411.6,532.5 "/>
<polygon class="st14" points="390.7,491.1 405.5,485.2 412.2,498.1 397.5,504 "/>
<polygon class="st3" points="405,518.5 419.8,512.6 426.6,525.6 411.8,531.5 "/>
<polygon class="st15" points="417.3,485.3 437.6,477.2 438.3,478.4 418,486.5 "/>
<polygon class="st15" points="418.3,487.1 451.8,473.7 452.4,475 419,488.4 "/>
<polygon class="st15" points="419.2,489 450.4,476.6 451.1,477.7 419.9,490.3 "/>
<polygon class="st15" points="431.6,512.8 451.9,504.6 452.6,505.9 432.3,513.9 "/>
<polygon class="st15" points="432.6,514.6 466.1,501.2 466.8,502.5 433.3,515.8 "/>
<polygon class="st15" points="433.5,516.5 464.7,504 465.4,505.2 434.2,517.7 "/>
<linearGradient id="SVGID_6_" gradientUnits="userSpaceOnUse" x1="483.5739" y1="629.9953" x2="483.5739" y2="622.4628" gradientTransform="matrix(0.9098 -0.415 0.415 0.9098 -298.4728 125.5618)">
	<stop  offset="0" style="stop-color:#808080;stop-opacity:0.25"/>
	<stop  offset="0.54" style="stop-color:#808080;stop-opacity:0.12"/>
	<stop  offset="1" style="stop-color:#808080;stop-opacity:0.1"/>
</linearGradient>
<polygon class="st16" points="397.7,495.2 401.5,496.3 402.8,489.8 404.6,490.3 402.6,498.2 396.8,496 "/>
<polygon class="st9" points="398.2,495.1 401.5,496 402.6,490.4 404.2,490.8 402.4,497.7 397.4,495.8 "/>
<polygon class="st9" points="412.6,522.7 415.9,523.7 417,518.1 418.6,518.5 416.8,525.3 411.8,523.4 "/>
<polygon class="st15" points="428.9,542.3 476.3,523.4 483.5,537.2 436.1,556.1 "/>
<path class="st3" d="M466,533.2c-1.8-0.5-3.7-0.4-4.2,1.4c-0.2,0.6-0.3,1.6-0.9,1.9c-1.1,0.5-2.5-0.5-3.4-0.9
	c-1.8-0.7-3.6-0.2-4.7,1.3c-0.5,0.8-0.8,1.6-0.9,2.5c-0.1,0.4-0.1,0.9-0.3,1.2c-0.3,0.6-1.4,0.6-2.1,0.6c-0.2,0-0.3,0-0.5,0
	c0.6-0.6,0.8-1.5,0.8-2.3c-0.1-1.3-1-2.9-2.8-2.7c-1.6,0.2-2.7,1.5-2.5,2.9c0.2,1.2,1,2.1,2.1,2.6c-0.5,0.2-1.1,0.4-1.6,0.6
	c-0.3,0.1-0.5,0.2-0.7,0.3c-1.5-0.6-3.6-0.8-4.9-0.1c-0.7,0.3-0.2,1.3,0.5,1c1-0.5,2.2-0.4,3.3-0.1h0.1c-0.1,0.2-0.2,0.2-0.3,0.4
	c-0.6,1,0,2.7,1.5,2.9c2.1,0.2,2.2-2.3,1.1-3.3c-0.1-0.1-0.1-0.1-0.2-0.2c0.5-0.2,1-0.3,1.4-0.6c0.4-0.2,0.8-0.3,1.1-0.6h0.1
	c1.6,0.3,4.1,0.4,4.7-1.3c0.5-1.5,0.6-4.7,3.3-4.4c1.1,0.2,2,0.9,3,1.1c0.9,0.2,2,0.2,2.8-0.3c0.7-0.5,0.8-1.3,1-1.9
	c0.1-0.4,0.2-0.8,0.5-1c0.6-0.5,1.6-0.2,2.3,0C466.3,534.3,466.7,533.3,466,533.2z M444.8,545.3c-0.3,0.3-0.8,0.1-0.9-0.2
	c-0.3-0.4-0.2-0.8,0.2-1.1c0.1-0.1,0.1-0.1,0.2-0.2C444.9,544.2,445.5,544.7,444.8,545.3L444.8,545.3z M446,537.5
	c0.8-0.6,1.8-0.5,2.2,0.4c0.4,0.9,0.3,2-0.3,2.7c-0.1,0.1-0.2,0.2-0.3,0.2c-0.4-0.2-0.8-0.3-1.2-0.6
	C445.6,539.6,445.1,538.3,446,537.5L446,537.5z"/>
<linearGradient id="SVGID_7_" gradientUnits="userSpaceOnUse" x1="594.7758" y1="667.9144" x2="594.7758" y2="595.1059" gradientTransform="matrix(1 0 0 1 -157.12 -136.92)">
	<stop  offset="0" style="stop-color:#808080;stop-opacity:0.25"/>
	<stop  offset="0.54" style="stop-color:#808080;stop-opacity:0.12"/>
	<stop  offset="1" style="stop-color:#808080;stop-opacity:0.1"/>
</linearGradient>
<path class="st17" d="M479.3,478.5l-13.3,4.5c-2.5-0.2-7.7-0.8-13-2.9c-5.8-2.4-12.4-2.4-18,0.2c-13,0.2-20.2-1.2-24-2.5l1-1.8
	l-13.5-4.6L365,458.1v54l11.8,4.6l6.4-13.2l13.9,5.6l2.6-5.9l9.1,5.9l0.6,0.5l-0.8,0.8c-1.6,1.5-1.6,3.9,0,5.4l0,0
	c1.5,1.4,4.1,1.5,5.8,0.2c0.1-0.1,0.1-0.1,0.2-0.2l-0.5,0.4c-1.6,1.5-1.6,3.9,0,5.4l0,0c1.5,1.4,4.1,1.5,5.8,0.2
	c0.1-0.1,0.1-0.1,0.2-0.2l2.7-2.5l0,0l-1.9,1.7c-1.6,1.5-1.6,3.9,0,5.4l0,0c1.5,1.4,4.1,1.5,5.8,0.2c0.1-0.1,0.1-0.1,0.2-0.2
	l2.6-2.5l0,0l-1.1,1c-1.1,1-1.1,2.7,0,3.7c1.1,1,2.9,1,4,0.1l0.1-0.1l1.8-1.6c3,2,5.5,3.4,6.7,3.7c5,1.5,5-1.5,5-1.5
	c6.7,3.1,10.1-3.1,10.1-3.1c8.4,3.1,8.4-4.6,8.4-4.6c2.1,1.3,3.6,0.7,4.7-0.4c1.4-1.5,1.6-3.6,0.6-5.4l8-6.5l3.5,6.2l13.9-5.6
	l6.4,12.3l9.3-3.6v-53.5L479.3,478.5z"/>
<polygon class="st18" points="477.1,506.8 462.4,518.2 451,499.7 477.1,494 "/>
<path class="st19" d="M407.1,477c0,0,4.7,5.7,32.5,4.3l16.3,21.3l10.9,10.7c1.7,1.7,1.8,4.3,0.2,5.9c-1,1-2.5,1.6-4.5,0.4
	c0,0,0,7.1-8.1,4.3c0,0-3.2,5.7-9.7,2.9c0,0,0,2.9-4.9,1.4c-4.9-1.4-30.9-19.9-30.9-19.9l-11.3-7.1L407.1,477z"/>
<path class="st18" d="M465.6,484.1c0,0-7,0-14-2.8c-6.4-2.5-13.6-2.2-19.5,1.1c-4.7,2.7-8.9,7.1-8.8,14.5c0,0,6.4,5.7,13-5.7h4.9
	c0,0,4.7,14.3,17.9,12.8c13.2-1.4,16.3-2.9,16.3-2.9L465.6,484.1z"/>
<path class="st18" d="M422.5,511.6l0.5,0.5c1.4,1.3,1.4,3.2,0,4.5l-3.8,3.3c-1.4,1.3-3.7,1.3-5.2,0l-0.5-0.5c-1.4-1.3-1.4-3.2,0-4.5
	l3.8-3.3C418.7,510.5,421,510.5,422.5,511.6z"/>
<path class="st18" d="M417.2,506.3l0.5,0.5c1.4,1.3,1.4,3.2,0,4.5l-3.8,3.3c-1.4,1.3-3.7,1.3-5.2,0l-0.5-0.5c-1.4-1.3-1.4-3.2,0-4.5
	l3.8-3.3C413.5,505.1,415.8,505.1,417.2,506.3z"/>
<path class="st18" d="M429.7,515.2l0.5,0.5c1.4,1.3,1.4,3.2,0,4.5l-4.6,4c-1.4,1.3-3.7,1.3-5.2,0l-0.5-0.5c-1.4-1.3-1.4-3.2,0-4.5
	l4.6-4C426,514,428.4,514,429.7,515.2z"/>
<path class="st18" d="M433.8,520.4l0.3,0.3c1,0.9,1,2.3,0,3.2l-2.9,2.5c-1,0.9-2.6,0.9-3.6,0l-0.3-0.3c-1-0.9-1-2.3,0-3.2l2.9-2.5
	C431.2,519.5,432.8,519.5,433.8,520.4z"/>
<polygon class="st9" points="493.2,509.7 478.7,515.4 464,484.1 477.1,479.8 "/>
<polygon class="st9" points="382.7,503.3 397.4,509.1 412,477.1 399,472.7 "/>
<polygon class="st20" points="366.6,459.8 399,471.6 377.9,510.9 366.6,506.9 "/>
<polygon class="st5" points="509,468.4 504.6,468.4 495.7,518.2 525,517.6 "/>
<polygon class="st3" points="509.5,467 477.1,479.8 498.2,522.5 509.5,518.2 "/>
<ellipse transform="matrix(0.9972 -7.538975e-02 7.538975e-02 0.9972 -29.3746 35.9327)" class="st1" cx="461.3" cy="407" rx="74.7" ry="12.4"/>
<path class="st6" d="M272.9,277.3l7-2.4c0,0,2.7-0.6,1.1-7.3c-1.6-6.7-5-4.8-5-4.8l-6.2,2.2l-2.4,0.9l3.4,6l0.2,4L272.9,277.3z"/>
<polygon class="st6" points="259.4,259.6 257.1,270.5 268.3,284.1 269.3,284.4 271.9,283.5 274.1,272.6 271.9,269.7 274.1,268.9 
	269.3,263.1 266.8,263.7 264.9,261.2 266.2,260.5 266.3,259.9 264.7,258.3 "/>
<polygon class="st3" points="269.8,274.9 268.4,282.2 261.7,274.3 263.4,267 "/>
<polygon class="st21" points="259.4,259.6 259.1,261.1 270.2,274.7 271.2,275 273.6,274.1 273.7,274.2 274.1,272.6 271.9,269.7 
	274.1,268.9 269.3,263.1 266.8,263.7 264.9,261.2 266.2,260.5 266.3,259.9 264.7,258.3 "/>
<ellipse transform="matrix(0.4831 -0.8756 0.8756 0.4831 -90.3977 365.7652)" class="st3" cx="264.6" cy="259.4" rx="0.8" ry="1"/>
<ellipse transform="matrix(0.4831 -0.8756 0.8756 0.4831 -96.9991 377.9638)" class="st3" cx="271.6" cy="271.1" rx="0.8" ry="1"/>
<path class="st22" d="M277.4,290.8l-1.5-6.5c0,0,4-11.8-0.5-12.9s-5,11-5,11l1.8,7.3L277.4,290.8z"/>
<ellipse transform="matrix(4.275467e-03 -1 1 4.275467e-03 -14.9779 511.2043)" class="st22" cx="249.2" cy="263.1" rx="15.1" ry="12.1"/>
<path class="st22" d="M253.1,273.7c0,0,0.7,11.1,2.4,12c1.7,0.9-15.9,7-15.9,7l5.4-7.5c0,0-2.2-11.5-4.7-14.2L253.1,273.7z"/>
<path class="st20" d="M270.1,287.4l4.8-0.7c0,0,5.7,3.8,5.7,8.8c0,4.9,3.3,12.9,3.3,12.9s2.4,10.6-3.1,11.4
	c-5.5,0.8-10.3-11.4-10.3-11.4L270.1,287.4z"/>
<path class="st4" d="M272.6,347.8l9.9-8.4c3.2-2.8,7.4-2.9,10.7-0.2c1.4,1.2,2.3,2.7,2.4,4.5c0,5.7-10.2,18.9-10.2,18.9
	s-7.7,20.9-15.1,21.6c-4.8,0.5-9.6,1.4-14.3,2.6c0,0,3.3,15.2,1.5,19.4c-1.8,4.2-8.9,9.1-9.5,8.6s-9.1-10.2-12.7-24.4
	c-3.6-14-6-24.7-2.6-25.4C236,364.3,272.6,347.8,272.6,347.8z"/>
<path class="st4" d="M294.5,342.5c0,0,2.2-0.4,1.8,6.1c-0.4,6.5-1.3,29.6-2.9,34.1c-1.6,4.6-1.9,9.8-1.2,11.8
	c0.6,1.9,1.9,4.9-0.3,5.3c-2.2,0.4-10.9-1.2-11.9-1.6s3.7-15.1,3.1-15.9s-1.2-18.6-1.2-18.6L294.5,342.5z"/>
<path class="st4" d="M291.3,398.6c0,0,5.2-1.9,5.8,2.3c0,0,0.9,6.4-3,8.7c-2.6,1.5-5.1,3.3-7.3,5.3c0,0-6.4,3-6.7-0.8
	c-0.3-3.8,1.3-17.4,1.3-17.4L291.3,398.6z"/>
<path class="st4" d="M256.9,403.1l-9.7-9.9c0,0,1.8,12.1-0.7,14.4l-1.1,4l3.1,3.2C248.4,414.8,258,412.9,256.9,403.1z"/>
<path class="st4" d="M243.2,386.3c0,0,6.4,2.3,5.4,10.3c-1,7.9-2.1,16.6-2.1,16.6s-0.5,21.3-5,22.8c-4.6,1.5-5.8-1.6-5.8-1.6
	s-5.2-16.7-3.6-21.6c1.9-6,4.6-12.8,3.7-14.7C235,396,236.5,385.1,243.2,386.3z"/>
<path class="st20" d="M240,281.5c0,0,2.5,0.4,6.4,1.2s6.8-3,8.8-2.2c2.2,0.8,19.8,6.2,19.8,6.2l-1.6,14.5c-0.5,4.8-1.8,9.4-3.4,13.8
	c-2.6,7.1,1.1,29.3,4.7,33.5c3.1,3.7,7.3,4.6,2.7,11c-4.6,6.5-12.6,12.1-28.7,10.2c-16.1-1.9-18.3-1.6-18.2-4.6
	c0-3,5.9-42.9,4.1-45.2c-1.8-2.3-2.8-4.6-2.7-5.7c0-0.7-1.9-9.3-3.1-14.9c-0.9-3.9-0.5-8.2,1-11.8c0.5-1.3,1.2-2.4,2-2.5
	c2.2-0.4,0.7-2.3,2.2-2.2c1.6,0,2.5,0.4,3.3,0L240,281.5z"/>
<path class="st4" d="M263.4,253c0,0-0.2-18.6-14.9-9.9c0,0-11.3-0.6-12.9,17.3l-1.6,18.6l1.6-1.5l1.1,2.1l3,0.3l0.9-3.3l1.1,3.6
	l23.9-1.3c0,0-11.5-5.9-13.2-19.9l2.3,2.3L263.4,253z"/>
<ellipse transform="matrix(4.275467e-03 -1 1 4.275467e-03 -10.6075 480.3629)" class="st4" cx="235.9" cy="245.5" rx="7.5" ry="6"/>
<path class="st4" d="M241.8,242.7c-0.7-3.9-3.6-6.4-6.8-5.8c0.1-0.1,0.2,0,0.3-0.1c3.2-0.8,6.4,1.7,7.1,5.8c0.6,4-1.4,8-4.6,8.8
	c-0.1,0.1-0.2,0-0.3,0.1C240.6,250.3,242.5,246.5,241.8,242.7z"/>
<ellipse transform="matrix(4.275467e-03 -1 1 4.275467e-03 177.7294 542.3582)" class="st4" cx="361.2" cy="181.9" rx="12.3" ry="9.9"/>
<path class="st2" d="M366.3,190.2c0,0-0.2,7.6,0.4,7.7s-8.2,3.1-8.2,3.1l-0.9-10.3L366.3,190.2z"/>
<path class="st2" d="M296.7,254.7c0,0-6.6,0-6.7-1c-0.2-1-1.5,7.6-1.5,7.6l2.7,1.1c0,0,5-2.7,5.5-2.7
	C297.1,259.8,296.7,254.7,296.7,254.7z"/>
<path class="st4" d="M289.6,256.8c0,0,1.2-5,2.7-5.2c0,0-5.1-4.1-5.2-5.4c-0.2-1.3-1.9-4.6-2.6-3.5c-0.8,1.1-0.8,18.8,0.5,20.5
	c1.3,1.9,7.3-2.6,7.3-2.6S288.5,258.6,289.6,256.8z"/>
<polygon class="st2" points="370,329.4 371.2,337.4 365.7,338.4 365.7,329.4 "/>
<ellipse transform="matrix(0.9997 -2.325440e-02 2.325440e-02 0.9997 -7.9597 8.653)" class="st1" cx="368.1" cy="346.6" rx="70.9" ry="11.6"/>
<path class="st4" d="M370.5,334.5c0,0,0.9-3.5,1.5-2.9c0.6,0.6,1.4,4.1,1.3,5c-0.1,0.9-1.2,8.1-0.8,9.5s-2.2,8-5.7,7.4
	c-3.5-0.6-3.1-4.3-3.1-4.3l1.3-5.8l0.4-9.1C365.5,334.3,369.3,333.5,370.5,334.5z"/>
<ellipse transform="matrix(4.275467e-03 -1 1 4.275467e-03 194.1369 532.9679)" class="st4" cx="364.7" cy="169" rx="5.1" ry="4.1"/>
<path class="st4" d="M370.1,166.3c0-2.6-1.6-4.8-3.7-5.1c0.1-0.1,0.3,0,0.4,0c2.3,0.1,4.1,2.3,4.1,5.2c0,2.8-1.8,5.1-4.1,5.1
	c-0.1,0-0.3,0-0.4,0C368.5,171,370.1,168.8,370.1,166.3z"/>
<ellipse transform="matrix(4.275467e-03 -1 1 4.275467e-03 173.0239 544.8228)" class="st2" cx="360.1" cy="185.5" rx="7.8" ry="6.2"/>
<path class="st4" d="M373.3,241.7c0,0-0.3,9.3-1.5,14.1c-1.2,4.8-5.7,39.1-4.8,41.7c0.9,2.6,5.4,31.4,4.3,33c-1,1.6-5.9,1.1-5.9,1.1
	l-6.5-34.9c0,0,1.5-38.4-9.5-39.3s-29-1.6-29-1.6s-11.6,4.2-16.8,4c-5.2-0.2-8.2,1.6-8.2,1.6l-0.8-7.6l23.1-6.2c0,0,21.2-9,32.8-6.5
	C361.8,243.5,373.3,241.7,373.3,241.7z"/>
<path class="st3" d="M365.1,195.5c0,0,1.8-1.3,2.3,0.1c0.4,1.3,3.5,2.4,4.7,1.3c1.2-1.1,4.1,0.4,4.1,0.4l3.2,12.1
	c0,0-1.7,10.4-3.2,16.1c-1.4,5.7-2.2,17.6-1.5,18.7c0.7,1.1-11.9,5.5-18,2.7c-6.1-2.8-7.5-6-7.5-6s6.7-11.8,4.5-17.4
	s-0.4-11.9-0.4-11.9l-0.9-6.3l5.1-3.5c0,0,0.3-3.3,1.5-3.3C360.3,198.4,365.1,195.5,365.1,195.5z"/>
<path class="st3" d="M354.5,205.4l-2.9-0.1c-1.7,1.8-2.4,4.7-2,7.4c0.7,4.6,4.2,19.8,4.2,19.8l2.9-9.4L354.5,205.4z"/>
<path class="st2" d="M348.3,235.2c0,0-4.5,6-1.2,9.2c3.3,3.2,4.1-7.2,4.1-7.2L348.3,235.2z"/>
<path class="st3" d="M354.7,222.7l-1.1,5.2l-1.8,4.1c0,0-6.1,5-6.2,6.8c0,0,2.7-4.3,6.1,0l3-9.1L354.7,222.7z"/>
<ellipse transform="matrix(4.275467e-03 -1 1 4.275467e-03 179.2025 538.5176)" class="st4" cx="360" cy="179.3" rx="5.1" ry="6.8"/>
<path class="st2" d="M373.5,179.8c0,0-4.7-3.4-6.7-1c-1.9,2.4,5.8,6.1,5.8,6.1L373.5,179.8z"/>
<path class="st3" d="M375.2,198.2l1.1-1c0,0,1.2-2.2,2.2-1.5c1.1,0.7,7.2-2.7,7.2-2.7s-2.3,1.3-2.2-1c0.1-2.3-0.3-1.8-1.8-1.9
	c-1.5-0.1-1.5,1-2.1-0.4c-0.6-1.3-0.3-2-1.3-1.3c-1,0.8-2.2,0.2-2.5-0.3c-0.3-0.5-5.6-1.5-5.6-1.5s2.1-7.6,2.6-8.1
	c0.4-0.5,11.8,5.8,11.8,5.8s14.4,5.1,10.7,10.8c-3.7,5.8-17.2,14.4-17.2,14.4L375.2,198.2z"/>
<path class="st3" d="M403.3,149.3l26.8,0.3c0,0,44,29.5,12.8,90c0,0-12.6-3.8-26.7,9C416.2,248.6,408.4,151.5,403.3,149.3z"/>
<path class="st5" d="M411.3,149.6c4.7,25,9.9,89.7,9.9,89.7c12.6-11.5,24-9.6,26.2-9.1c-1.4,3.4-2.9,6.6-4.5,9.7
	c0,0-12.6-3.8-26.7,9c0,0-7.8-97.1-12.9-99.4L411.3,149.6z"/>
<polygon class="st6" points="443.3,180.8 445.6,195 475,188.4 475,188.4 475.7,171.8 470,171.8 "/>
<polygon class="st5" points="470.5,171.8 475,188.4 475,188.4 475.7,171.8 "/>
<ellipse transform="matrix(4.275467e-03 -1 1 4.275467e-03 255.3847 630.5062)" class="st6" cx="444.3" cy="187" rx="9.6" ry="3.3"/>
<path class="st6" d="M458.1,399.8c-0.5,0-1-0.6-1-1.3l0,0l3.5-211.4c0-0.8,0.4-1.3,1.1-1.4c0.6-0.1,1,0.6,1,1.3l-3.5,211.4
	C459.1,399.2,458.7,399.9,458.1,399.8L458.1,399.8L458.1,399.8z"/>
<path class="st6" d="M455.1,421.7c-0.7,0-1.5-0.6-1.6-1.3c0-0.1,0-0.2,0-0.2l4.6-81.3l-37.5,62.8c-0.4,0.5-1.2,0.8-2,0.3
	c-0.6-0.4-1.1-1.2-0.7-1.7l0,0l0,0l40.6-68c0.4-0.5,1.2-0.8,2-0.3c0.5,0.3,0.9,0.8,0.8,1.3l-5.1,87.5
	C456.2,421.3,455.7,421.7,455.1,421.7z"/>
<path class="st6" d="M497.8,414.1c-0.3,0-0.7-0.2-0.9-0.7l-39-78.9c-0.3-0.6-0.2-1.5,0.4-1.9c0.5-0.4,1.1-0.3,1.5,0.4l0,0l0,0
	l39,78.9c0.3,0.6,0.2,1.5-0.4,1.9C498.1,413.9,498,414,497.8,414.1z"/>
</svg>
